<svg xmlns="http://www.w3.org/2000/svg" width="780" height="440" viewBox="0 0 780 440"><defs><style>.a{fill:#d8d7f9;}.b{fill:#162020;}.c{fill:#c1c1f7;}.d{fill:#fff;}.e{fill:#9180f4;}.f{fill:#2079c3;}.g{fill:#ff95c1;}</style></defs><rect class="a" x="0.0018" y="0.0014" width="780" height="440"/><path class="b" d="M556.4541,172.7539a5.5129,5.5129,0,1,1,4.2295-1.9683v.0005A5.5051,5.5051,0,0,1,556.4541,172.7539Zm.0078-9.7754a4.2644,4.2644,0,1,0,3.2647,7.0044h0a4.2629,4.2629,0,0,0-3.2647-7.0044Zm3.7432,7.4058h0Z"/><path class="b" d="M548.626,216.9575a.623.623,0,0,1-.4014-.146l-8.58-7.1972a.625.625,0,0,1,.8028-.9581l8.58,7.1973a.625.625,0,0,1-.4013,1.104Z"/><path class="b" d="M540.7373,217.6484a.6249.6249,0,0,1-.4785-1.0268l7.1973-8.5791a.6249.6249,0,1,1,.957.8037l-7.1973,8.5791A.6234.6234,0,0,1,540.7373,217.6484Z"/><path class="b" d="M586.9912,211.1265a.6259.6259,0,0,1-.623-.57l-.7647-8.7354a.6258.6258,0,0,1,.5684-.6772l8.7353-.7657a.626.626,0,0,1,.6778.5679l.7646,8.7354a.6258.6258,0,0,1-.5684.6772l-8.7353.7656C587.0273,211.1255,587.01,211.1265,586.9912,211.1265Zm-.0879-8.7925.6563,7.49,7.49-.6562-.6562-7.49Z"/><rect class="c" x="247.6721" y="88.7135" width="234.8686" height="286.1163"/><path class="b" d="M483.166,375.4551H247.0469V88.0884H483.166Zm-234.8691-1.25H481.916V89.3384H248.2969Z"/><rect class="d" x="270.4943" y="88.7135" width="189.2241" height="259.2509"/><path class="b" d="M460.3438,348.59H269.8691V88.0884H460.3438Zm-189.2247-1.25H459.0938V89.3384H271.1191Z"/><path class="c" d="M390.5407,77.6511a26.2924,26.2924,0,0,0-50.8685,0C315.1,80.7182,296.877,88.0749,293.4139,105.6854h143.385C433.3359,88.0749,415.1127,80.7182,390.5407,77.6511Zm-25.4343-2.6488a3.8758,3.8758,0,1,1,3.8757-3.8758A3.8757,3.8757,0,0,1,365.1064,75.0023Z"/><path class="b" d="M437.5586,106.3105H292.6543l.1465-.7456c3.1054-15.7949,17.8467-24.851,46.3779-28.4819a26.9171,26.9171,0,0,1,51.8555,0c28.5312,3.6309,43.2724,12.687,46.3779,28.4819Zm-143.374-1.25H436.0283c-3.3252-14.8056-17.8359-23.3281-45.5644-26.79l-.42-.0522-.1074-.4092a25.668,25.668,0,0,0-49.66,0l-.1075.4092-.42.0522C312.0205,81.7324,297.51,90.2549,294.1846,105.0605Zm70.9218-29.4331a4.501,4.501,0,1,1,4.501-4.5009A4.5062,4.5062,0,0,1,365.1064,75.6274Zm0-7.7519a3.251,3.251,0,1,0,3.251,3.251A3.2545,3.2545,0,0,0,365.1064,67.8755Z"/><path class="b" d="M381.7168,195.666H297.7207a.625.625,0,0,1,0-1.25h83.9961a.625.625,0,0,1,0,1.25Z"/><path class="b" d="M432.4922,195.666H398.6816a.625.625,0,0,1,0-1.25h33.8106a.625.625,0,0,1,0,1.25Z"/><path class="b" d="M405.27,171.2158H324.9434a.625.625,0,0,1,0-1.25H405.27a.625.625,0,0,1,0,1.25Z"/><path class="b" d="M330.8477,220.1162H297.3906a.625.625,0,0,1,0-1.25h33.4571a.625.625,0,0,1,0,1.25Z"/><path class="b" d="M432.8223,220.1162H346.7051a.625.625,0,0,1,0-1.25h86.1172a.625.625,0,0,1,0,1.25Z"/><path class="b" d="M382.0479,296.2822H298.0508a.625.625,0,0,1,0-1.25h83.9971a.625.625,0,0,1,0,1.25Z"/><path class="b" d="M432.8223,296.2822H399.0117a.625.625,0,0,1,0-1.25h33.8106a.625.625,0,0,1,0,1.25Z"/><path class="b" d="M432.8223,271.832H298.0508a.625.625,0,0,1,0-1.25H432.8223a.625.625,0,0,1,0,1.25Z"/><path class="b" d="M330.8477,247.3818H297.3906a.625.625,0,0,1,0-1.25h33.4571a.625.625,0,0,1,0,1.25Z"/><path class="b" d="M432.8223,247.3818H346.7051a.625.625,0,0,1,0-1.25h86.1172a.625.625,0,0,1,0,1.25Z"/><path class="b" d="M330.8477,320.7324H297.3906a.625.625,0,0,1,0-1.25h33.4571a.625.625,0,0,1,0,1.25Z"/><path class="b" d="M432.8223,320.7324H346.7051a.625.625,0,0,1,0-1.25h86.1172a.625.625,0,0,1,0,1.25Z"/><circle class="e" cx="365.1064" cy="134.8663" r="22.8948" transform="translate(4.019 280.1504) rotate(-42.1912)"/><path class="b" d="M365.1035,158.3862a23.52,23.52,0,0,1-.2158-47.0385,23.5195,23.5195,0,0,1,23.7373,23.3,23.5468,23.5468,0,0,1-23.3,23.7374C365.252,158.3857,365.1768,158.3862,365.1035,158.3862Zm.0088-45.79c-.0713,0-.1416.0005-.2129.001a22.27,22.27,0,0,0,.2041,44.5385c.07,0,.14,0,.21-.0009a22.27,22.27,0,0,0-.2012-44.5386Z"/><path class="d" d="M383.4842,148.3838c-1.3977-4.7652-7.0482-8.3-19.0329-8.1884-11.9255.1108-16.635,3.7062-17.7228,8.4592a22.8953,22.8953,0,0,0,36.7557-.2708Z"/><path class="b" d="M365.0078,158.3857a23.6383,23.6383,0,0,1-18.7783-9.354l-.1748-.2324.0644-.2842c1.336-5.8344,7.501-8.8442,18.3262-8.9448q.2856-.0028.5664-.0024c13.6514,0,17.9112,4.6816,19.0723,8.64l.0869.2964-.1826.249a23.3362,23.3362,0,0,1-18.7647,9.6314C365.1514,158.3853,365.08,158.3857,365.0078,158.3857Zm-17.6006-9.8725a22.4632,22.4632,0,0,0,17.8047,8.6216,22.0876,22.0876,0,0,0,17.58-8.8677c-1.6533-4.9-8.1582-7.5352-18.335-7.4468C354.4717,140.9131,348.7383,143.5005,347.4072,148.5132Z"/><circle class="d" cx="365.1064" cy="129.1382" r="10.4095" transform="translate(-2.7113 250.3385) rotate(-37.7164)"/><path class="b" d="M365.1055,140.1729a11.0347,11.0347,0,0,1-.1016-22.0689c.0342-.0005.0693-.0005.1035-.0005a11.0347,11.0347,0,0,1,.1016,22.0689h0C365.1748,140.1729,365.14,140.1729,365.1055,140.1729Zm.0019-20.8194c-.0312,0-.06,0-.0918.0005a9.7847,9.7847,0,0,0,.09,19.5689c.03,0,.0615,0,.0918,0h0a9.7847,9.7847,0,0,0-.09-19.5689Z"/><circle class="f" cx="489.4541" cy="290.2617" r="48.9739"/><path class="b" d="M489.4541,339.86a49.5987,49.5987,0,1,1,49.5986-49.5987A49.655,49.655,0,0,1,489.4541,339.86Zm0-97.9473a48.3487,48.3487,0,1,0,48.3486,48.3486A48.4038,48.4038,0,0,0,489.4541,241.9131Z"/><path class="g" d="M538.4279,290.2617a48.9739,48.9739,0,0,0-48.9739-48.974v49.2051"/><path class="b" d="M490.0791,290.4932h-1.25v-49.83h.625a49.655,49.655,0,0,1,49.5986,49.5986h-1.25a48.4038,48.4038,0,0,0-47.7236-48.3447Z"/><path class="b" d="M489.4541,339.86a49.5987,49.5987,0,1,1,49.5986-49.5987A49.655,49.655,0,0,1,489.4541,339.86Zm0-97.9473a48.3487,48.3487,0,1,0,48.3486,48.3486A48.4038,48.4038,0,0,0,489.4541,241.9131Z"/><path class="b" d="M538.4277,291.1182H489.4541a.6256.6256,0,0,1-.625-.625V241.2881a.625.625,0,1,1,1.25,0v48.58h48.3486a.625.625,0,0,1,0,1.25Z"/><path class="b" d="M566.2227,271.2061H513.87a.625.625,0,0,1,0-1.25h52.3526a.625.625,0,0,1,0,1.25Z"/><circle class="d" cx="511.0509" cy="270.5806" r="2.819"/><path class="b" d="M511.0508,274.0244a3.4439,3.4439,0,1,1,3.4443-3.4433A3.4478,3.4478,0,0,1,511.0508,274.0244Zm0-5.6377a2.1939,2.1939,0,1,0,2.1943,2.1944A2.1969,2.1969,0,0,0,511.0508,268.3867Z"/><path class="b" d="M566.2227,308.2158H513.87a.625.625,0,0,1,0-1.25h52.3526a.625.625,0,0,1,0,1.25Z"/><circle class="d" cx="511.0509" cy="307.5908" r="2.819"/><path class="b" d="M511.0508,311.0352a3.4444,3.4444,0,1,1,3.4443-3.4444A3.4481,3.4481,0,0,1,511.0508,311.0352Zm0-5.6387a2.1944,2.1944,0,1,0,2.1943,2.1943A2.1969,2.1969,0,0,0,511.0508,305.3965Z"/><rect class="d" x="551.188" y="261.3853" width="27.3845" height="18.2563"/><path class="b" d="M578.5723,280.2666H551.1885a.6256.6256,0,0,1-.625-.625V261.3857a.6256.6256,0,0,1,.625-.625h27.3838a.6256.6256,0,0,1,.625.625v18.2559A.6256.6256,0,0,1,578.5723,280.2666Zm-26.7588-1.25h26.1338V262.0107H551.8135Z"/><rect class="d" x="551.188" y="298.664" width="27.3845" height="18.2563"/><path class="b" d="M578.5723,317.5449H551.1885a.6256.6256,0,0,1-.625-.625V298.6641a.6255.6255,0,0,1,.625-.625h27.3838a.6255.6255,0,0,1,.625.625V316.92A.6256.6256,0,0,1,578.5723,317.5449Zm-26.7588-1.25h26.1338V299.2891H551.8135Z"/><path class="b" d="M629.2422,278.5889a9.1672,9.1672,0,0,1-6.2461-2.7159l.8887-.8789a7.9145,7.9145,0,0,0,5.3964,2.3448Z"/><path class="b" d="M629.5381,278.6035c-.0693,0-.1367-.0039-.2041-.01l-.0528-1.2549.2569.0146a7.9306,7.9306,0,0,0,5.3867-2.1142l.8477.92A9.1785,9.1785,0,0,1,629.5381,278.6035Z"/><path class="b" d="M635.7725,276.1592l-.8477-.92a7.8835,7.8835,0,0,0,2.5606-5.6426l1.25.0312A9.1291,9.1291,0,0,1,635.7725,276.1592Z"/><path class="b" d="M635.1377,263.7412a7.9068,7.9068,0,0,0-5.6-2.3057l-.2569.0137-.039-1.25c.16-.01.2275-.0137.2959-.0137a9.1513,9.1513,0,0,1,6.4785,2.667Z"/><path class="b" d="M623.6934,264.0078l-.92-.8476a9.1343,9.1343,0,0,1,6.4688-2.961l.039,1.25A7.8832,7.8832,0,0,0,623.6934,264.0078Z"/><path class="b" d="M620.34,269.6211c-.0078-.12-.0107-.1729-.0107-.2266a9.1711,9.1711,0,0,1,2.4453-6.2343l.918.8476a7.93,7.93,0,0,0-2.1133,5.3867l.0107.209Z"/><path class="b" d="M622.9961,275.873a9.1721,9.1721,0,0,1-2.6563-6.2451l1.25-.0312a7.9208,7.9208,0,0,0,2.295,5.3974Z"/><path class="b" d="M637.4854,269.5957l.0078-.1269a7.9273,7.9273,0,0,0-2.3555-5.7276l.8789-.8887a9.1452,9.1452,0,0,1,2.7305,6.542c0,.0567-.0039.1123-.0078.168Z"/><path class="f" d="M635.3485,275.6994a8.5423,8.5423,0,0,1-5.81,2.2788c-.0934,0-.1836-.011-.2764-.014a8.5506,8.5506,0,0,1-5.8208-2.5305l-6.2918,6.2916a17.4223,17.4223,0,0,0,12.1126,5.1427c.0924.0015.1836.007.2764.007a17.4165,17.4165,0,0,0,12.1074-4.8786Z"/><path class="b" d="M629.5381,287.5l-.2832-.0068a18.0035,18.0035,0,0,1-12.5488-5.3272.6254.6254,0,0,1,.0009-.8828l6.291-6.292a.6252.6252,0,0,1,.4424-.1826h.001a.6248.6248,0,0,1,.4434.1855,7.9145,7.9145,0,0,0,5.3964,2.3448l.2569.0146a7.9306,7.9306,0,0,0,5.3867-2.1142.6272.6272,0,0,1,.8662.0175l6.2969,6.2969a.6249.6249,0,0,1-.01.8926A18.0124,18.0124,0,0,1,629.5381,287.5ZM618.04,281.7188a16.7606,16.7606,0,0,0,11.2315,4.5244l.2666.0068a16.758,16.758,0,0,0,11.206-4.2715l-5.4267-5.4267a9.1654,9.1654,0,0,1-5.7793,2.0517c-.0693,0-.1367-.0039-.2041-.01a9.2637,9.2637,0,0,1-5.8809-2.2891Z"/><path class="b" d="M617.1494,282.3506h-.001a.6226.6226,0,0,1-.4423-.1846,18.0032,18.0032,0,0,1-5.2676-12.5459.6252.6252,0,0,1,.625-.6328h8.9013a.6255.6255,0,0,1,.625.6094,7.9208,7.9208,0,0,0,2.295,5.3974.6251.6251,0,0,1-.002.8819l-6.291,6.292A.6252.6252,0,0,1,617.1494,282.3506Zm-4.4414-12.1133a16.7473,16.7473,0,0,0,4.45,10.5957l5.415-5.416a9.1584,9.1584,0,0,1-2.1982-5.18Z"/><path class="g" d="M641.8689,257.0055a17.4247,17.4247,0,0,0-12.3309-5.0916c-.0928,0-.184.0056-.2764.007v8.9038c.0928-.003.183-.014.2764-.014a8.5884,8.5884,0,0,1,8.5837,8.5838c0,.0736-.0092.1449-.0111.2181a8.5472,8.5472,0,0,1-2.7621,6.0868l6.2969,6.297a17.423,17.423,0,0,0,5.3675-12.3838c.0009-.0729.0055-.1449.0055-.2181A17.426,17.426,0,0,0,641.8689,257.0055Z"/><path class="b" d="M641.6367,282.8711l-7.19-7.19.4785-.4414a7.8835,7.8835,0,0,0,2.5606-5.6426l.0078-.1279a7.9576,7.9576,0,0,0-7.9551-8.0333l-.9014.0342v-10.167l.9014-.0136a17.99,17.99,0,0,1,12.7715,5.2734h.0009a17.9867,17.9867,0,0,1,5.3331,12.832l-.004.1455a18.0157,18.0157,0,0,1-5.5615,12.9063Zm-5.4013-7.169,5.4111,5.4112a16.7108,16.7108,0,0,0,4.7412-11.5088l.0029-.1113a16.7868,16.7868,0,0,0-4.9619-12.044h0a16.7443,16.7443,0,0,0-11.542-4.9062v7.6494a9.2136,9.2136,0,0,1,8.86,9.2021c0,.0567-.0039.1123-.0078.168A9.1848,9.1848,0,0,1,636.2354,275.7021Z"/><path class="b" d="M620.9648,270.2373h-8.9013a.625.625,0,0,1-.625-.6162l-.0059-.2266a18.0124,18.0124,0,0,1,5.0537-12.54h0a17.9676,17.9676,0,0,1,12.7657-5.5586.644.644,0,0,1,.4482.18.626.626,0,0,1,.1865.4453v8.9033a.6248.6248,0,0,1-.6055.625,7.97,7.97,0,0,0-7.7021,7.9453c.001.0088.0107.1924.0107.2012a.6252.6252,0,0,1-.625.6416Zm-8.2773-1.25h7.65a9.2245,9.2245,0,0,1,8.2988-8.749v-7.6709a16.7283,16.7283,0,0,0-11.25,5.1523h0A16.7737,16.7737,0,0,0,612.6875,268.9873Zm4.249-11.7h0Z"/><path class="b" d="M624.1016,305.3311l-.8555-.9122a9.1631,9.1631,0,0,1,6.293-2.496h.0429l-.0058,1.25h-.0371A7.9161,7.9161,0,0,0,624.1016,305.3311Z"/><path class="b" d="M621.5947,310.8057l-1.248-.0508a9.1838,9.1838,0,0,1,2.68-6.1367c.0468-.0469.0986-.0928.1513-.1387l.9248.8506-.1884.1689A7.9443,7.9443,0,0,0,621.5947,310.8057Z"/><path class="b" d="M622.8691,317.4678a9.1206,9.1206,0,0,1-2.5224-6.7129l1.248.0508a7.8819,7.8819,0,0,0,2.1807,5.8007Z"/><path class="b" d="M629.582,320.3369l-.0058-1.25a7.9087,7.9087,0,0,0,5.5888-2.3291l.1729-.1924.91.8575c-.1054.12-.1513.1718-.2021.2216A9.1461,9.1461,0,0,1,629.582,320.3369Z"/><path class="b" d="M636.249,317.4219l-.9121-.8555a7.8911,7.8911,0,0,0,2.1445-5.7607l1.2481-.0508A9.1316,9.1316,0,0,1,636.249,317.4219Z"/><path class="b" d="M637.4814,310.8057a7.9372,7.9372,0,0,0-2.3164-5.3028l-.1445-.1308.85-.916c.0947.082.14.122.1836.1669a9.1764,9.1764,0,0,1,2.6758,6.1319Z"/><path class="b" d="M635.0146,305.3672a7.9158,7.9158,0,0,0-5.4384-2.1943l.0058-1.25a9.1611,9.1611,0,0,1,6.294,2.538Z"/><path class="b" d="M629.54,320.3369a9.1492,9.1492,0,0,1-6.5136-2.6953c-.04-.04-.08-.085-.12-.1309l.8741-.8984.0713.08a8.0864,8.0864,0,0,0,5.7246,2.3945l.0058,1.25Z"/><path class="g" d="M620.9711,310.78a8.5427,8.5427,0,0,1,2.4973-5.72c.066-.066.1376-.122.2053-.1855a8.5506,8.5506,0,0,1,5.9053-2.3266l0-8.8978a17.4227,17.4227,0,0,0-12.2014,4.9284c-.0663.0643-.1347.1249-.2.19a17.4164,17.4164,0,0,0-5.1115,12.011Z"/><path class="b" d="M621.57,311.4053H611.4277l.0127-.6377a18.0218,18.0218,0,0,1,5.295-12.4405l.1455-.1386a18.0572,18.0572,0,0,1,12.6543-5.1631h.0459l.623.0019v10.1485l-.6279-.0029h-.0371a7.9161,7.9161,0,0,0-5.4375,2.1582l-.1875.1679a7.9443,7.9443,0,0,0-2.3194,5.3067Zm-8.8555-1.25H620.39a9.177,9.177,0,0,1,2.6368-5.5371c.0468-.0469.0986-.0928.1513-.1387a9.258,9.258,0,0,1,5.7764-2.5381v-7.6562a16.75,16.75,0,0,0-11.1416,4.7421l-.1895.1807A16.7682,16.7682,0,0,0,612.7148,310.1553Z"/><path class="b" d="M635.4453,305.5391a.6258.6258,0,0,1-.4307-.1719,7.9158,7.9158,0,0,0-5.4384-2.1943.6256.6256,0,0,1-.6221-.625V293.65a.6251.6251,0,0,1,.625-.625h.001a18,18,0,0,1,12.5967,5.1465.626.626,0,0,1,.0058.89l-6.2949,6.2949A.6274.6274,0,0,1,635.4453,305.5391Zm-5.2412-3.5928a9.1528,9.1528,0,0,1,5.2158,2.1084l5.4229-5.4219a16.7463,16.7463,0,0,0-10.6387-4.3447Z"/><path class="f" d="M629.579,328.6093a17.4246,17.4246,0,0,0,12.32-5.119c.0656-.0656.1262-.134.1905-.2l-6.2959-6.2959c-.0635.0677-.12.1392-.1856.2052a8.5883,8.5883,0,0,1-12.1392,0c-.0521-.0521-.096-.1089-.1464-.1621a8.5473,8.5473,0,0,1-2.3509-6.2571h-8.9052a17.4224,17.4224,0,0,0,4.9612,12.552c.0509.0522.0986.1064.15.1581A17.4253,17.4253,0,0,0,629.579,328.6093Z"/><path class="b" d="M629.5361,329.2344a17.9831,17.9831,0,0,1-12.8007-5.3018l-.1045-.11a18.0188,18.0188,0,0,1-5.1905-13.0547.6249.6249,0,0,1,.625-.6123h8.9053a.624.624,0,0,1,.624.65,7.8819,7.8819,0,0,0,2.1807,5.8007c.0068.0069.0693.0782.0762.086a8.0864,8.0864,0,0,0,5.7246,2.3945,7.9087,7.9087,0,0,0,5.5888-2.3291l.1729-.1924a.6269.6269,0,0,1,.4453-.1963.5513.5513,0,0,1,.4522.1827l6.2958,6.2959a.6256.6256,0,0,1,.0059.8779l-.1963.207a17.9917,17.9917,0,0,1-12.76,5.3018h-.045Zm.043-.625h0Zm-16.8906-17.2041a16.7149,16.7149,0,0,0,4.7861,11.49l.0693.0742.0762.0782a16.7356,16.7356,0,0,0,11.916,4.9365h.041a16.7381,16.7381,0,0,0,11.63-4.6924l-5.4091-5.4082a9.1443,9.1443,0,0,1-6.2159,2.4531h-.042a9.1492,9.1492,0,0,1-6.5136-2.6953c-.04-.04-.08-.085-.12-.1309a9.1763,9.1763,0,0,1-2.5644-6.1054Z"/><path class="b" d="M642.0889,323.915a.6268.6268,0,0,1-.4424-.1826l-6.2959-6.2959a.6263.6263,0,0,1-.0137-.87,7.962,7.962,0,0,0-.1719-11.0635c-.0048-.0049-.14-.1259-.1445-.1308a.6253.6253,0,0,1-.0176-.9l6.295-6.2949a.6279.6279,0,0,1,.8759-.0079l.167.1582a18.0187,18.0187,0,0,1,5.294,12.4405h0a17.97,17.97,0,0,1-5.0967,12.957A.5668.5668,0,0,1,642.0889,323.915Zm-5.4395-6.9482,5.4238,5.4238a16.7169,16.7169,0,0,0,4.3116-11.5976h0a16.7655,16.7655,0,0,0-4.6436-11.29l-5.41,5.4092a9.2217,9.2217,0,0,1,.3183,12.0547Z"/><polygon class="d" points="169.689 153.043 183.279 159.014 177.256 145.475 169.689 153.043"/><path class="b" d="M183.2793,159.6387a.6168.6168,0,0,1-.251-.0528l-13.5908-5.9712a.6251.6251,0,0,1-.1914-1.0141l7.5674-7.5669a.6321.6321,0,0,1,.5566-.1729.6255.6255,0,0,1,.457.3609l6.0235,13.5381a.6248.6248,0,0,1-.5713.8789Zm-12.502-6.8008,11.2745,4.9536-4.9971-11.231Z"/><rect class="g" x="102.1878" y="80.5196" width="11.7559" height="6.6411" transform="translate(243.7638 66.7105) rotate(135.0002)"/><path class="b" d="M106.2578,91.228l-5.58-5.58,9.1963-9.1963,5.58,5.58Zm-3.8125-5.58,3.8125,3.812,7.4287-7.4287L109.874,78.22Z"/><rect class="f" x="96.4712" y="111.85" width="90.79" height="11.5024" transform="translate(159.024 301.0724) rotate(-135)"/><path class="b" d="M169.8984,154.3921a.6233.6233,0,0,1-.4423-.1831L105.2578,90.0107a.6259.6259,0,0,1,0-.8837l8.1338-8.1333a.6259.6259,0,0,1,.8848,0l64.1982,64.1982a.626.626,0,0,1,0,.8838l-8.1338,8.1333A.6234.6234,0,0,1,169.8984,154.3921ZM106.584,89.5688l63.3144,63.3145,7.25-7.2495L113.834,82.3193Z"/><path class="b" d="M192.3,177.1079a6.5169,6.5169,0,1,1,6.5166-6.5171A6.5238,6.5238,0,0,1,192.3,177.1079Zm0-11.7837a5.2669,5.2669,0,1,0,5.2666,5.2666A5.2725,5.2725,0,0,0,192.3,165.3242Z"/><path class="b" d="M303.4053,175.9863a.625.625,0,0,1-.4424-1.0669l9.54-9.5405a.6253.6253,0,0,1,.8848.8838l-9.54,9.5405A.6237.6237,0,0,1,303.4053,175.9863Z"/><path class="b" d="M312.9453,175.9863a.6237.6237,0,0,1-.4424-.1831l-9.54-9.5405a.6253.6253,0,0,1,.8848-.8838l9.54,9.5405a.625.625,0,0,1-.4424,1.0669Z"/><path class="b" d="M209.2979,172.0078a.625.625,0,0,1-.0059-1.25l84.57-.792h.0059a.625.625,0,0,1,.0058,1.25l-84.57.792Z"/></svg>